<svg xmlns="http://www.w3.org/2000/svg" width="22.226" height="33.332" viewBox="0 0 22.226 33.332"><defs><style>.a{fill:#fff;}</style></defs><g transform="translate(-85.277)"><g transform="translate(85.277)"><g transform="translate(0)"><path class="a" d="M107.433,10.107A11.414,11.414,0,0,0,97.412.064C97.1.029,96.769.008,96.377,0c-.366.008-.7.029-1.009.064A11.382,11.382,0,0,0,88.78,19.588a9.178,9.178,0,0,1,2.444,3.742h2.943V14.995H93.056a2.223,2.223,0,1,1,2.223-2.223v1.111H97.5V12.772a2.223,2.223,0,1,1,2.223,2.223H98.612V23.33h2.943A9.173,9.173,0,0,1,104,19.588,11.335,11.335,0,0,0,107.433,10.107Z" transform="translate(-85.277)"/><rect class="a" width="2.223" height="8.335" transform="translate(10.002 14.995)"/><path class="a" d="M292.3,180.19a1.111,1.111,0,1,0-2.223,0V181.3h1.111A1.112,1.112,0,0,0,292.3,180.19Z" transform="translate(-276.738 -167.418)"/><path class="a" d="M179.137,376.459h5a.556.556,0,1,1,0,1.111h-5v1.111h3.334a.556.556,0,1,1,0,1.111h-3.334v1.667a.555.555,0,0,0,.556.556h.834l1,1.333a2.233,2.233,0,0,0,1.778.89h1.667a2.232,2.232,0,0,0,1.778-.89l1-1.333h.833a.555.555,0,0,0,.556-.556v-1.667h-3.89a.556.556,0,1,1,0-1.111h3.89v-1.111h-2.223a.556.556,0,1,1,0-1.111h2.223v-1.111h-10v1.111Zm7.224,5.557-.5.667a1.115,1.115,0,0,1-.889.445H183.3a1.117,1.117,0,0,1-.889-.445l-.5-.667Z" transform="translate(-173.025 -350.907)"/><path class="a" d="M188.785,179.08a1.111,1.111,0,0,0,0,2.223H189.9v-1.111A1.112,1.112,0,0,0,188.785,179.08Z" transform="translate(-181.006 -167.419)"/></g></g></g></svg>