<svg xmlns="http://www.w3.org/2000/svg" width="38.145" height="38.154" viewBox="0 0 38.145 38.154"><defs><style>.a{fill:#6e0e8f;fill-rule:evenodd;}</style></defs><path class="a" d="M6703.744,12852.405a19.072,19.072,0,1,1-19.068-19.085A19.076,19.076,0,0,1,6703.744,12852.405Zm-30.616,7.762a10.888,10.888,0,0,0,5.228-.906,8.932,8.932,0,0,0,2.095-1.256,5.032,5.032,0,0,1-2.167-.54,4.909,4.909,0,0,1-2.392-2.666c-.106-.27-.106-.27.188-.251a4.166,4.166,0,0,0,1.84-.126,4.916,4.916,0,0,1-1.185-.461,5.026,5.026,0,0,1-2.709-4.268c-.019-.223.044-.248.248-.151a5.024,5.024,0,0,0,1.964.542c-.32-.293-.594-.523-.843-.771a5.141,5.141,0,0,1-.793-5.682c.127-.243.17-.243.341-.053a14.158,14.158,0,0,0,8.743,4.879c.358.072.75.081,1.113.146.248.04.276-.072.24-.271a5.013,5.013,0,0,1,8.391-4.5.544.544,0,0,0,.553.131,9.271,9.271,0,0,0,2.65-1.031.6.6,0,0,0,.211-.133,4.986,4.986,0,0,1-2.116,2.765,10.135,10.135,0,0,0,2.7-.713c.017.127-.071.194-.125.293a10,10,0,0,1-2.08,2.126.435.435,0,0,0-.186.407,14.589,14.589,0,0,1-3.458,9.787,13.561,13.561,0,0,1-8.373,4.705,14.28,14.28,0,0,1-9.976-1.949.267.267,0,0,0-.106-.054Z" transform="translate(-6665.599 -12833.32)"/></svg>